<?xml version="1.0" encoding="utf-8"?>
<!-- Generator: Adobe Illustrator 21.1.0, SVG Export Plug-In . SVG Version: 6.00 Build 0)  -->
<svg version="1.1" id="eminem_logo" xmlns="http://www.w3.org/2000/svg" xmlns:xlink="http://www.w3.org/1999/xlink" x="0px"
	 y="0px" viewBox="0 0 340.8 64.6" style="enable-background:new 0 0 340.8 64.6;" xml:space="preserve">
<style type="text/css">
	.st0{fill:#FFFFFF;}
	.st1{fill:#D91414;}
</style>
<polyline class="st0" points="0,0 57.1,0 57.1,10.8 0,10.8 0,0 "/>
<rect y="9.9" class="st0" width="15.7" height="33.7"/>
<rect x="13.3" y="24.1" class="st0" width="41.5" height="9.6"/>
<rect x="64.2" class="st0" width="15" height="43.7"/>
<polygon class="st0" points="74.5,0 88,0 107.5,44.2 93.6,44.2 "/>
<polygon class="st0" points="123.5,0.5 128.9,0.5 128.9,21.8 119.4,44.2 105,44.2 "/>
<rect x="135.1" y="0.5" class="st0" width="16" height="43.8"/>
<rect x="190.7" y="0.5" class="st0" width="14.9" height="43.2"/>
<polygon class="st0" points="158.3,20.6 158.3,0.5 193.7,43.7 176.1,43.7 "/>
<rect x="212.4" y="0.5" transform="matrix(-1 -4.489310e-11 4.489310e-11 -1 481.8897 11.8406)" class="st0" width="57.1" height="10.8"/>
<rect x="253.8" y="10.3" transform="matrix(-1 -4.631641e-11 4.631641e-11 -1 523.2505 54.4585)" class="st0" width="15.7" height="33.9"/>
<rect x="214.7" y="24.6" transform="matrix(-1 -4.260116e-11 4.260116e-11 -1 470.5558 58.8938)" class="st0" width="41.2" height="9.6"/>
<rect x="325.8" y="0.2" transform="matrix(-1 -4.488555e-11 4.488555e-11 -1 666.5793 43.9939)" class="st0" width="15" height="43.7"/>
<polygon class="st0" points="330.5,0.2 316.9,0.2 296.8,44.4 311.4,44.4 "/>
<polygon class="st0" points="281.5,0.6 276,0.6 276,22 285.5,44.4 299.4,44.4 "/>
<rect y="49" class="st1" width="340.8" height="15.6"/>
</svg>
